<svg viewBox="50.791 198.341 193.984 26.964" xmlns="http://www.w3.org/2000/svg"><path d="m70.979 219.705.504.14q-.224 1.54-.7 2.646-.476 1.106-1.232 1.722-.588.476-1.526.784-.938.308-2.086.308-1.54 0-3.01-.476-1.47-.476-2.982-1.162-1.512-.686-3.203-1.325-.185-.061-.367-.131t-.294-.07q-.532.252-1.155.42-.624.168-1.19.168-.567 0-.945-.168t-.378-.56q0-.756 1.529-.756.991 0 2.139.392 1.041-.28 1.793-.63t1.547-.658q.795-.308 1.923-.392l.029.448q-.874.084-1.515.322-.641.238-1.282.518t-1.515.532q1.988.14 3.696.294 1.708.154 3.164.196 1.456.042 2.632-.126 1.736-.196 2.744-.756 1.008-.56 1.68-1.68Zm-10.275-19.88q2.961 0 5.19 1.204 2.229 1.204 3.461 3.458 1.232 2.254 1.232 5.474 0 3.136-1.262 5.488-1.263 2.352-3.507 3.668-2.245 1.316-5.144 1.316-2.961 0-5.19-1.204-2.229-1.204-3.461-3.472-1.232-2.268-1.232-5.46 0-3.136 1.278-5.488 1.278-2.352 3.507-3.668 2.229-1.316 5.128-1.316Zm-.119.504q-1.562 0-2.724 1.26-1.162 1.26-1.792 3.472-.63 2.212-.63 5.124 0 2.968.714 5.166.713 2.198 1.935 3.388 1.221 1.19 2.697 1.19 1.572 0 2.733-1.26t1.791-3.486q.63-2.226.63-5.11 0-2.996-.717-5.18-.717-2.184-1.932-3.374-1.215-1.19-2.705-1.19Zm25.813 4.928v11.732q0 1.26.392 1.862.392.602 1.4.602v.588q-.868-.084-1.736-.084-1.176 0-2.184.084-1.008.084-1.904.308v-2.52q-.672 1.4-1.862 2.002-1.19.602-2.646.602-1.176 0-1.904-.308t-1.148-.784q-.476-.532-.672-1.4-.196-.868-.196-2.24v-7.084q0-1.26-.378-1.862-.378-.602-1.414-.602v-.588q.896.084 1.736.084 1.176 0 2.198-.098t1.89-.294v11.592q0 .7.126 1.232t.49.826q.364.294 1.064.294.756 0 1.358-.42.602-.42.98-1.162t.378-1.666v-7.336q0-1.26-.378-1.862-.378-.602-1.414-.602v-.588q.896.084 1.736.084 1.176 0 2.198-.098t1.89-.294Zm12.652-.084q.896 0 1.456.378.56.378.826.966.266.588.266 1.232 0 1.036-.602 1.694-.602.658-1.582.658-.98 0-1.526-.49t-.546-1.302q0-.784.35-1.302t.882-.882q-.392-.112-.784.028-.532.084-1.008.434t-.812.868q-.336.518-.532 1.12-.196.602-.196 1.162v7.42q0 1.344.658 1.82t1.974.476v.588q-.644-.028-1.876-.07-1.232-.042-2.576-.042-1.12 0-2.268.042-1.148.042-1.736.07v-.588q.98 0 1.386-.42.406-.42.406-1.596v-8.82q0-1.26-.378-1.862-.378-.602-1.414-.602v-.588q.896.084 1.736.084 1.176 0 2.198-.098t1.89-.294v2.604q.336-.756.896-1.372.56-.616 1.288-.966t1.624-.35Zm7.307 15.064q-1.26 0-2.1-.476-.84-.476-1.232-1.274t-.392-1.75q0-1.204.546-1.96t1.414-1.232q.868-.476 1.834-.784.966-.308 1.848-.602.882-.294 1.428-.7.546-.406.546-1.05v-2.184q0-.728-.238-1.302-.238-.574-.728-.882-.49-.308-1.274-.308-.56 0-1.12.154t-.924.518q.784.28 1.218.854.434.574.434 1.302 0 .952-.658 1.512t-1.554.56q-1.008 0-1.526-.63t-.518-1.526q0-.812.406-1.344t1.134-1.008q.784-.448 1.89-.7 1.106-.252 2.394-.252t2.324.266q1.036.266 1.736.966.644.644.84 1.582.196.938.196 2.366v7.616q0 .7.14.966t.476.266q.252 0 .49-.14t.518-.336l.28.476q-.588.504-1.358.77-.77.266-1.722.266-1.036 0-1.652-.294-.616-.294-.882-.798t-.266-1.176q-.672 1.064-1.624 1.666-.952.602-2.324.602Zm1.988-1.792q.56 0 1.022-.266.462-.266.882-.882v-5.74q-.252.42-.7.756-.448.336-.952.686-.504.35-.966.77-.462.42-.742 1.036-.28.616-.28 1.484 0 1.092.476 1.624t1.26.532Zm19.059-13.272q1.176 0 1.918.294t1.162.798q.448.532.658 1.372.21.84.21 2.268v7.532q0 1.176.406 1.596.406.42 1.386.42v.588q-.532-.028-1.596-.07-1.064-.042-2.1-.042-1.064 0-2.086.042-1.022.042-1.554.07v-.588q.84 0 1.176-.42.336-.42.336-1.596v-8.708q0-.7-.14-1.218t-.504-.812q-.364-.294-1.092-.294-.756 0-1.386.42-.63.42-1.008 1.162t-.378 1.666v7.784q0 1.176.35 1.596.35.42 1.162.42v.588q-.504-.028-1.47-.07-.966-.042-2.002-.042-1.064 0-2.184.042t-1.68.07v-.588q.98 0 1.386-.42.406-.42.406-1.596v-8.82q0-1.26-.378-1.862-.378-.602-1.414-.602v-.588q.896.084 1.736.084 1.176 0 2.198-.098t1.89-.294v2.52q.7-1.428 1.904-2.016 1.204-.588 2.688-.588Zm14.055-5.32q1.652 0 2.548.35.896.35 1.54.742.336.196.546.294.21.098.406.098.28 0 .406-.308t.21-.924h.644q-.028.532-.07 1.274-.042.742-.056 1.946-.014 1.204-.014 3.164h-.644q-.112-1.456-.672-2.828-.56-1.372-1.582-2.254-1.022-.882-2.506-.882-1.344 0-2.212.756-.868.756-.868 2.1 0 1.12.56 1.918.56.798 1.638 1.554 1.078.756 2.618 1.82 1.344.868 2.408 1.736 1.064.868 1.708 1.96.644 1.092.644 2.604 0 1.848-.966 3.052t-2.534 1.806q-1.568.602-3.444.602-1.736 0-2.772-.336-1.036-.336-1.736-.7-.616-.392-.952-.392-.28 0-.406.308t-.21.924h-.644q.056-.672.07-1.568.014-.896.028-2.338.014-1.442.014-3.654h.644q.112 1.848.63 3.458t1.596 2.59q1.078.98 2.87.98.98 0 1.75-.35t1.246-1.05q.476-.7.476-1.736 0-1.176-.546-2.044-.546-.868-1.484-1.624-.938-.756-2.17-1.54-1.316-.868-2.464-1.736t-1.834-1.988q-.686-1.12-.686-2.66 0-1.764.882-2.898.882-1.134 2.324-1.68 1.442-.546 3.066-.546Zm12.711-1.512q1.176 0 1.862.574.686.574.686 1.582t-.686 1.582q-.686.574-1.862.574-1.176 0-1.862-.574-.686-.574-.686-1.582t.686-1.582q.686-.574 1.862-.574Zm2.184 6.916v12.175q0 1.181.406 1.601.406.42 1.386.42v.588q-.52-.028-1.576-.07-1.056-.042-2.148-.042-1.089 0-2.21.042-1.122.042-1.682.07v-.588q.98 0 1.386-.42.406-.42.406-1.602v-8.808q0-1.266-.377-1.868-.377-.602-1.415-.602v-.588q.896.084 1.736.084 1.176 0 2.198-.098t1.89-.294Zm8.673-4.284v4.592h3.304v.56h-3.304v11.312q0 .84.308 1.19t.924.35q.504 0 1.008-.378t.896-1.302l.476.252q-.448 1.26-1.358 2.072-.91.812-2.478.812-.924 0-1.624-.238-.7-.238-1.176-.714-.616-.616-.812-1.526-.196-.91-.196-2.366v-9.464h-2.352v-.56h2.352v-3.696q1.176 0 2.17-.21t1.862-.686Zm11.306 4.2q2.464 0 3.864 1.456t1.4 4.76h-9.212l-.056-.532h5.74q.028-1.372-.168-2.534-.196-1.162-.616-1.862-.42-.7-1.12-.7-.98 0-1.666 1.232-.686 1.232-.826 4.088l.084.168q-.028.336-.042.7-.014.364-.014.756 0 1.932.546 3.136.546 1.204 1.386 1.75.84.546 1.708.546.588 0 1.218-.182t1.274-.672q.644-.49 1.204-1.386l.504.168q-.336 1.064-1.064 2.072t-1.848 1.652q-1.12.644-2.688.644-1.904 0-3.36-.812t-2.282-2.464q-.826-1.652-.826-4.2 0-2.604.882-4.34.882-1.736 2.436-2.59 1.554-.854 3.542-.854Zm9.992 10.948q1.092 0 1.736.574.644.574.644 1.582t-.644 1.582q-.644.574-1.736.574t-1.736-.574q-.644-.574-.644-1.582t.644-1.582q.644-.574 1.736-.574Zm11.726-10.948q1.092 0 2.002.238.91.238 1.498.602.728.448 1.134 1.106.406.658.406 1.526 0 .98-.616 1.61-.616.63-1.596.63-.98 0-1.568-.56-.588-.56-.588-1.512 0-.896.56-1.498t1.288-.798q-.224-.28-.672-.476-.448-.196-1.008-.196-.868 0-1.526.504t-1.106 1.4q-.448.896-.686 2.1-.238 1.204-.238 2.632 0 2.156.546 3.388.546 1.232 1.4 1.736.854.504 1.778.504.532 0 1.162-.168.63-.168 1.288-.672t1.218-1.428l.476.168q-.308 1.036-1.008 2.072t-1.82 1.694q-1.12.658-2.744.658-1.82 0-3.29-.798t-2.352-2.464q-.882-1.666-.882-4.298 0-2.52.91-4.242t2.478-2.59q1.568-.868 3.556-.868Zm13.826 0q2.044 0 3.584.756t2.408 2.436q.868 1.68.868 4.452 0 2.772-.868 4.438t-2.408 2.422q-1.54.756-3.584.756-1.988 0-3.542-.756-1.554-.756-2.436-2.422-.882-1.666-.882-4.438t.882-4.452q.882-1.68 2.436-2.436 1.554-.756 3.542-.756Zm0 .56q-1.12 0-1.876 1.666-.756 1.666-.756 5.418 0 3.752.756 5.404.756 1.652 1.876 1.652 1.148 0 1.89-1.652t.742-5.404q0-3.752-.742-5.418-.742-1.666-1.89-1.666Zm18.758-.56q1.176 0 1.904.294t1.176.798q.448.532.644 1.386.196.854.196 2.254v7.532q0 1.176.364 1.596.364.42 1.26.42v.588q-.504-.028-1.526-.07-1.022-.042-2.002-.042-1.008 0-1.988.042t-1.484.07v-.588q.756 0 1.05-.42.294-.42.294-1.596v-8.708q0-.7-.112-1.218t-.434-.812q-.322-.294-.966-.294-.728 0-1.344.42-.616.42-.994 1.162t-.378 1.666v7.784q0 1.176.308 1.596.308.42 1.036.42v.588q-.448-.028-1.386-.07-.938-.042-1.918-.042-1.064 0-2.184.042t-1.68.07v-.588q.98 0 1.386-.42.406-.42.406-1.596v-8.82q0-1.26-.378-1.862-.378-.602-1.414-.602v-.588q.896.084 1.736.084 1.176 0 2.198-.098t1.89-.294v2.52q.672-1.4 1.82-2.002 1.148-.602 2.52-.602Zm8.428 0q1.176 0 1.904.294t1.176.798q.448.532.644 1.386.196.854.196 2.254v7.532q0 1.176.406 1.596.406.42 1.386.42v.588q-.532-.028-1.596-.07-1.064-.042-2.1-.042-1.008 0-1.988.042t-1.484.07v-.588q.756 0 1.05-.42.294-.42.294-1.596v-8.708q0-.7-.126-1.218t-.476-.812q-.35-.294-1.078-.294-.728 0-1.344.448-.616.448-.994 1.204t-.406 1.68l-.14-1.708q.756-1.68 2.002-2.268 1.246-.588 2.674-.588Z" fill="#333"/></svg>